<?xml version="1.0" standalone="no"?>
<!DOCTYPE svg PUBLIC "-//W3C//DTD SVG 20010904//EN"
 "http://www.w3.org/TR/2001/REC-SVG-20010904/DTD/svg10.dtd">
<svg version="1.0" xmlns="http://www.w3.org/2000/svg"
 width="235.000000pt" height="235.000000pt" viewBox="0 0 235.000000 235.000000"
 preserveAspectRatio="xMidYMid meet">
<metadata>
Created by potrace 1.11, written by Peter Selinger 2001-2013
</metadata>
<g transform="translate(0.000000,235.000000) scale(0.100000,-0.100000)"
fill="#000000" stroke="none">
<path d="M1026 1848 c-7 -18 -26 -67 -41 -108 -15 -41 -33 -88 -40 -105 -7
-16 -24 -61 -38 -100 -18 -51 -342 -920 -385 -1033 -3 -10 28 -12 149 -10
l153 3 46 140 46 140 251 3 251 2 16 -42 c9 -24 31 -88 50 -143 l33 -100 152
-3 153 -3 -8 23 c-3 13 -13 35 -20 50 -8 15 -14 29 -14 30 1 2 -2 12 -6 23
-10 28 -65 176 -74 200 -15 37 -68 179 -233 620 l-165 440 -131 3 -132 3 -13
-33z m229 -573 c47 -137 85 -252 85 -257 0 -4 -76 -8 -170 -8 -110 0 -170 4
-170 10 0 6 6 25 13 43 8 18 14 35 15 40 1 16 137 425 140 422 2 -1 41 -114
87 -250z"/>
</g>
</svg>
